<?xml version="1.0" encoding="UTF-8"?>
<svg version="1.1" xmlns="http://www.w3.org/2000/svg" width="2000" height="1247">
<path d="M0 0 C77.55 0 155.1 0 235 0 C236.54167549 4.62502647 237.62468214 8.76267056 238.5078125 13.515625 C238.63815887 14.21266541 238.76850525 14.90970581 238.90280151 15.62786865 C239.17531982 17.08975711 239.44580929 18.5520251 239.71435547 20.01464844 C240.1264809 22.25806133 240.54514093 24.50018109 240.96484375 26.7421875 C243 37.69366922 243 37.69366922 243 40 C227.83857667 44.52702651 212.61184529 48.81077774 197.36477661 53.03897095 C195.2006986 53.63916263 193.03686049 54.24021996 190.8732605 54.84213257 C187.79386923 55.69830109 184.71350932 56.5508865 181.6328125 57.40234375 C180.69108688 57.66452698 179.74936127 57.92671021 178.77909851 58.19683838 C177.48296379 58.55367706 177.48296379 58.55367706 176.16064453 58.91772461 C175.02346481 59.23246986 175.02346481 59.23246986 173.86331177 59.55357361 C172 60 172 60 170 60 C170.00222061 60.74687576 170.00444122 61.49375153 170.00672913 62.26325989 C170.13184047 106.8260824 169.97644921 151.38408583 169.59428024 195.94549179 C169.56295546 199.63387136 169.53281266 203.32225889 169.50296021 207.01065063 C169.24949437 238.01436116 168.78957343 269.00513589 168 300 C168.84546347 300.05369326 169.69092695 300.10738652 170.56201053 300.16270685 C179.156326 300.7383551 187.68229885 301.57684985 196.23614502 302.59411621 C197.61207987 302.75540242 198.98804732 302.91641064 200.36404395 303.07716894 C204.10281278 303.51478303 207.84110823 303.95632544 211.57933021 304.39858317 C215.62660601 304.87669437 219.6743165 305.35109963 223.7219696 305.82600403 C231.63124131 306.75459423 239.54010269 307.68663454 247.44881603 308.6199671 C253.87329818 309.37808582 260.29792243 310.13498922 266.72264862 310.89103699 C267.63881889 310.99885186 268.55498915 311.10666674 269.49892215 311.21774873 C271.36025597 311.43678658 273.22159003 311.65582231 275.08292434 311.87485594 C292.50193096 313.92480516 309.92046395 315.97875603 327.3388426 318.03403324 C342.29207147 319.79833148 357.24573332 321.55892106 372.19970703 323.31689453 C389.57724859 325.35978051 406.95449748 327.40512931 424.33129954 329.45429659 C426.18191275 329.67252269 428.03252642 329.89074485 429.88314056 330.10896301 C430.79364981 330.21632761 431.70415906 330.32369221 432.64225949 330.43431029 C439.06687287 331.19170224 445.49169581 331.9472999 451.91660309 332.70219421 C459.73420792 333.62076367 467.55149611 334.54197294 475.3683829 335.46663368 C479.35828225 335.93852843 483.34831689 336.40919217 487.33874321 336.87661171 C490.98647705 337.30392337 494.63378741 337.73467236 498.28078231 338.16824418 C500.23482648 338.39962779 502.1893113 338.62728054 504.14380574 338.85482931 C505.29215799 338.99205609 506.44051024 339.12928287 507.62366104 339.27066803 C508.62081202 339.38821898 509.61796299 339.50576993 510.64533067 339.62688303 C513 340 513 340 515 341 C515.02953451 340.16151425 515.05906902 339.32302851 515.08949852 338.4591341 C516.96447542 285.26723391 518.90554717 232.07806174 520.93233109 178.89172173 C521.36350104 167.57685287 521.79201299 156.26189014 522.21708262 144.9467904 C522.5237208 136.78954275 522.83314323 128.63240366 523.14469182 120.47534209 C523.32810562 115.67145373 523.51036183 110.86752863 523.68959427 106.06348228 C523.85552183 101.61772008 524.02489861 97.17210277 524.19696236 92.72657394 C524.25910359 91.10564644 524.3200004 89.48467066 524.3795414 87.86364555 C524.46103087 85.65025934 524.54705431 83.43709301 524.63418579 81.22392273 C524.70438903 79.37299531 524.70438903 79.37299531 524.77601051 77.48467541 C525.00328532 73.94888926 525.45231069 70.49927773 526 67 C524.7514624 66.74782715 523.5029248 66.4956543 522.21655273 66.23583984 C516.5148741 64.9654028 511.05473236 63.12271726 505.53515625 61.2265625 C504.46180527 60.86154633 503.38845428 60.49653015 502.28257751 60.12045288 C500.02363086 59.35112268 497.76546845 58.57948631 495.50805664 57.80566406 C492.07824163 56.63039407 488.64580462 55.46305789 485.21289062 54.296875 C483.00765261 53.54473946 480.80256929 52.7921502 478.59765625 52.0390625 C477.58381363 51.6941275 476.56997101 51.3491925 475.52540588 50.99380493 C473.60052109 50.33265315 471.67901129 49.66157087 469.76147461 48.97940063 C467.9029232 48.32023599 466.03507046 47.68679183 464.15942383 47.07797241 C457.51512766 44.76185547 457.51512766 44.76185547 455.03857422 41.09912109 C454.7138916 40.00164551 454.38920898 38.90416992 454.0546875 37.7734375 C453.49394531 35.9790625 453.49394531 35.9790625 452.921875 34.1484375 C452.40367187 32.28058594 452.40367187 32.28058594 451.875 30.375 C451.29878906 28.49554688 451.29878906 28.49554688 450.7109375 26.578125 C448 17.61266741 448 17.61266741 448 15 C461.74937093 13.62687295 475.4931396 12.48134615 489.28100586 11.57958984 C491.20539502 11.45146978 493.12976686 11.32308944 495.05412292 11.19447327 C500.20582993 10.85092902 505.35777571 10.5111045 510.50978541 10.17213392 C515.92824854 9.81508581 521.34650155 9.45487432 526.76478577 9.09512329 C535.84134379 8.49295994 544.91805697 7.89318216 553.99487305 7.29492188 C564.48079288 6.60376216 574.96647145 5.9090311 585.45202726 5.21237218 C595.57481885 4.53987542 605.69775786 3.86962434 615.82077217 3.20048904 C620.11692387 2.91648755 624.41302564 2.63174686 628.70908928 2.34641647 C633.75621716 2.011323 638.80347204 1.67821098 643.85083199 1.346632 C645.70120329 1.22476333 647.55153056 1.10222407 649.40180969 0.97896385 C651.92737853 0.81083274 654.45309615 0.64514301 656.97886658 0.48007202 C657.70969088 0.43085393 658.44051518 0.38163584 659.19348568 0.3309263 C663.13633044 0.07615915 667.04914 -0.0474425 671 0 C672.51186959 3.41153553 674.00739131 6.8299987 675.5 10.25 C675.92925781 11.21808594 676.35851563 12.18617188 676.80078125 13.18359375 C677.20683594 14.11816406 677.61289063 15.05273438 678.03125 16.015625 C678.59682617 17.30388184 678.59682617 17.30388184 679.17382812 18.61816406 C680 21 680 21 680 25 C678.52905273 26.33349609 678.52905273 26.33349609 676.43359375 27.5234375 C675.65008545 27.97960449 674.86657715 28.43577148 674.05932617 28.90576172 C672.76152222 29.63303467 672.76152222 29.63303467 671.4375 30.375 C669.58788447 31.44678332 667.7389519 32.51974592 665.890625 33.59375 C664.92060547 34.15191406 663.95058594 34.71007812 662.95117188 35.28515625 C658.15131421 38.0742198 653.42173458 40.97641438 648.6875 43.875 C646.76711743 45.04588516 644.84654241 46.21645474 642.92578125 47.38671875 C641.9610791 47.97501465 640.99637695 48.56331055 640.00244141 49.16943359 C634.79475506 52.34452159 629.58483341 55.51593673 624.375 58.6875 C622.92613403 59.56994385 622.92613403 59.56994385 621.44799805 60.47021484 C620.09315308 61.29513428 620.09315308 61.29513428 618.7109375 62.13671875 C617.91993652 62.61842529 617.12893555 63.10013184 616.31396484 63.59643555 C614 65 614 65 611.3987121 66.01124394 C608.89119491 67.6967972 608.89119491 67.6967972 608.52596111 69.8116387 C608.32498083 72.29335041 608.29229936 74.73368692 608.30664158 77.22366142 C608.29255488 78.17222254 608.27846817 79.12078366 608.2639546 80.09808905 C608.22287637 83.2722385 608.21738369 86.44544688 608.21180725 89.61984253 C608.18999712 91.88126206 608.16604092 94.14266179 608.14006907 96.40403736 C608.07727978 102.40343658 608.0445864 108.40263912 608.01849714 114.40229577 C607.98911409 120.11731505 607.93307247 125.83204612 607.87936211 131.54687881 C607.76186981 144.74688972 607.69315377 157.94698813 607.63030541 171.14735532 C607.60037237 177.27548699 607.56686703 183.40359846 607.53351501 189.53171231 C607.46566549 202.0198671 607.40114602 214.50803683 607.33868217 226.99621964 C607.2770321 239.31941777 607.21380498 251.64260625 607.14857674 263.96578598 C607.14448644 264.73870319 607.14039614 265.51162041 607.13618189 266.30795936 C607.11539229 270.23493669 607.09457554 274.16191388 607.07374836 278.08889101 C606.92716801 305.7358408 606.78396511 333.38280712 606.64282227 361.02978516 C606.50589506 387.84945588 606.36739204 414.66911773 606.22680664 441.48876953 C606.222456 442.31886453 606.21810536 443.14895954 606.21362288 444.00420893 C606.16992097 452.34213205 606.12618758 460.68005501 606.08243114 469.01797784 C605.99333478 485.99569806 605.90444825 502.97341937 605.81568909 519.95114136 C605.81160991 520.73135066 605.80753073 521.51155996 605.80332795 522.31541196 C605.53202957 574.21025643 605.26563449 626.10512627 605 678 C605.60391288 678.13043386 606.20782576 678.26086773 606.83003902 678.39525414 C608.02960405 678.65742698 608.02960405 678.65742698 609.25340271 678.92489624 C610.04294059 679.0965801 610.83247847 679.26826397 611.64594173 679.44515038 C615.14130894 680.26900559 618.51379483 681.38057895 621.91015625 682.5390625 C622.63248947 682.78125519 623.35482269 683.02344788 624.0990448 683.27297974 C626.4216427 684.05276202 628.74206123 684.83881881 631.0625 685.625 C632.66683884 686.16484397 634.27133229 686.70422866 635.87597656 687.24316406 C639.07638493 688.31856912 642.27604688 689.39614935 645.47509766 690.47558594 C651.72773038 692.58409143 657.98873749 694.66727372 664.25 696.75 C666.17192125 697.39048623 668.09380171 698.03109489 670.015625 698.671875 C671.34374719 699.11459177 672.67187166 699.55730168 674 700 C673.33020896 707.32150894 671.98329403 714.37910423 670.4375 721.5625 C670.20353516 722.66658203 669.96957031 723.77066406 669.72851562 724.90820312 C669.15618938 727.60631255 668.57993998 730.30351875 668 733 C644.85417298 733.03087559 621.70834465 733.0510597 598.5625 733.0625 C597.70887218 733.0629343 596.85524435 733.06336861 595.97574902 733.06381607 C552.02303922 733.08557713 508.07491277 733.06209705 464.125 732.5 C463.18915699 732.48804218 462.25331398 732.47608437 461.28911209 732.46376419 C450.5258268 732.32489469 439.76280299 732.17244661 429 732 C428.6587842 728.22983769 428.32851717 724.45878834 428 720.6875 C427.85691406 719.1087207 427.85691406 719.1087207 427.7109375 717.49804688 C427.12055261 710.64536517 426.87665827 703.8771579 427 697 C436.83869586 694.51716368 446.67865415 692.03940147 456.52025986 689.56812286 C461.08998641 688.42047094 465.65925836 687.27107075 470.22753906 686.11767578 C474.63554997 685.0048139 479.04469192 683.89654374 483.45465851 682.79145813 C485.13758762 682.36887708 486.82010143 681.94463849 488.50218964 681.51872253 C490.85682962 680.92281196 493.21287252 680.33279263 495.56933594 679.74414062 C496.26561096 679.56647659 496.96188599 679.38881256 497.67926025 679.20576477 C500.93599566 678.39852215 503.61186598 678 507 678 C506.99777939 677.18256317 506.99555878 676.36512634 506.99327087 675.5229187 C506.86609565 625.89995395 507.02318756 576.28049531 507.38955754 526.65894878 C507.4264623 521.65738504 507.46203343 516.65581319 507.49703979 511.65423584 C507.54565785 504.73220915 507.59813608 497.81021783 507.65287781 490.888237 C507.67246814 488.37347807 507.69128679 485.85871294 507.70909119 483.34394073 C507.91824693 454.22493274 508.50648549 425.11735601 509 396 C396.47 396 283.94 396 168 396 C167.67 405.24 167.34 414.48 167 424 C166.27624608 438.44756437 166.27624608 438.44756437 165.99822998 443.37922668 C165.9364431 444.48122217 165.87465622 445.58321766 165.81099701 446.71860695 C165.74703987 447.85826597 165.68308273 448.997925 165.6171875 450.17211914 C165.48050937 452.64424422 165.34406239 455.1163821 165.20782471 457.58853149 C164.88026662 463.52014109 164.55015593 469.45160498 164.21862173 475.38299335 C163.94934999 480.20108929 163.6810919 485.0192407 163.41351318 489.83743095 C163.37508234 490.52938674 163.33665149 491.22134253 163.29705608 491.93426667 C163.21894467 493.34069348 163.14083394 494.74712033 163.06272388 496.15354722 C162.33581674 509.23938433 161.60532286 522.32501933 160.87368083 535.41059243 C160.20459671 547.37935152 159.54011965 559.34836134 158.87774158 571.31749327 C158.19494054 583.65491603 157.50908053 595.99216521 156.81987953 608.32923216 C156.43400633 615.23753869 156.0493472 622.14590764 155.66790771 629.05446053 C155.31060241 635.52523479 154.94899726 641.99575978 154.58443451 648.4661293 C154.45117121 650.84333395 154.31933533 653.22061908 154.18900299 655.59798622 C154.0114964 658.83179261 153.82892559 662.0652735 153.64501953 665.29872131 C153.59414122 666.24751146 153.5432629 667.1963016 153.49084282 668.17384297 C153.44070093 669.03688083 153.39055904 669.8999187 153.33889771 670.78910923 C153.29729082 671.53527046 153.25568394 672.28143169 153.21281624 673.05020386 C153 675 153 675 152 678 C152.52863647 678.08414658 153.05727295 678.16829315 153.60192871 678.25498962 C162.1872705 679.78679218 170.37691324 682.51819234 178.65625 685.19140625 C180.25128715 685.7022458 181.84646378 686.21265003 183.44177246 686.72264099 C186.76433258 687.78600247 190.0857401 688.8528613 193.40625 689.92260742 C197.66625604 691.29498034 201.92822761 692.66111976 206.19095612 694.02501011 C210.2634111 695.32832495 214.33485966 696.63477023 218.40625 697.94140625 C219.1830159 698.19038729 219.9597818 698.43936832 220.76008606 698.69589424 C222.94804272 699.39782064 225.13526702 700.10197988 227.32226562 700.80688477 C228.56673462 701.20722427 229.81120361 701.60756378 231.09338379 702.02003479 C234 703 234 703 236 704 C236.67966119 706.92128377 237.23621405 709.78768158 237.7265625 712.7421875 C237.95537613 714.06115524 237.95537613 714.06115524 238.18881226 715.4067688 C238.51052626 717.27063593 238.8280011 719.13523888 239.14160156 721.00048828 C239.62203687 723.85737985 240.11449687 726.7119847 240.609375 729.56640625 C240.91997744 731.37487878 241.22989592 733.18346895 241.5390625 734.9921875 C241.68590485 735.84851776 241.83274719 736.70484802 241.98403931 737.58712769 C242.18457413 738.78319138 242.18457413 738.78319138 242.38916016 740.00341797 C242.50748199 740.70433563 242.62580383 741.4052533 242.74771118 742.12741089 C243 744 243 744 243 747 C228.99264126 747.05020936 214.99773133 746.9032718 200.99316406 746.6328125 C198.87201734 746.59324403 196.75086754 746.55384063 194.62971497 746.5145874 C188.93889991 746.40881739 183.24813014 746.3007735 177.55736637 746.19228363 C171.58504279 746.07882543 165.61267923 745.96751075 159.64031982 745.85595703 C148.3609718 745.64495778 137.08166039 745.43206425 125.80236125 745.21846962 C112.94848173 744.97515117 100.09456226 744.73397571 87.24063921 744.49296951 C60.82704807 743.9976772 34.41350755 743.49972862 8 743 C7.49640653 738.5837353 6.99774511 734.16692737 6.5 729.75 C6.35691406 728.49574219 6.21382812 727.24148438 6.06640625 725.94921875 C5.93105469 724.74394531 5.79570313 723.53867187 5.65625 722.296875 C5.53056641 721.18666992 5.40488281 720.07646484 5.27539062 718.93261719 C5 716 5 716 5 712 C18.7779747 706.86392055 32.55681447 701.73017311 46.33692932 696.59983826 C51.97825557 694.49919604 57.61873789 692.3963616 63.25666809 690.28662109 C65.2191397 689.55248859 67.18208355 688.81963775 69.14526367 688.08740234 C71.36773256 687.25824377 73.58930156 686.42666779 75.80981445 685.59228516 C76.76073975 685.23827637 77.71166504 684.88426758 78.69140625 684.51953125 C79.88552124 684.07250854 79.88552124 684.07250854 81.10375977 683.61645508 C83 683 83 683 85 683 C84.93661705 681.91614832 84.87323411 680.83229664 84.80793047 679.71560097 C84.04406299 666.2161222 83.61620718 652.71579996 83.24108887 639.20068359 C83.17101481 636.73786331 83.10073633 634.27504883 83.03027296 631.81223965 C82.87844565 626.48978606 82.72801956 621.16729573 82.57887077 615.84476662 C82.35706874 607.92997396 82.13257608 600.01525917 81.9075311 592.10055814 C81.52880993 578.77901118 81.15211823 565.45740761 80.77650452 552.13577271 C80.26354072 533.94415098 79.74732289 515.75262257 79.2302143 497.56111825 C78.98894924 489.07352947 78.74782943 480.58593657 78.50673676 472.0983429 C78.48260765 471.2488979 78.45847854 470.39945291 78.43361825 469.52426716 C77.86018568 449.33603055 77.28809124 429.14775606 76.71630859 408.95947266 C76.67881057 407.63554534 76.67881057 407.63554534 76.64055502 406.28487201 C76.05693489 385.67900103 75.47370848 365.07311893 74.89093018 344.46722412 C74.68852269 337.31066879 74.48610971 330.15411362 74.28369141 322.99755859 C74.25870705 322.11420802 74.23372268 321.23085745 74.20798122 320.32073867 C73.63745675 300.14956666 73.0663811 279.97841052 72.49326324 259.80731201 C72.46917307 258.9594474 72.4450829 258.11158279 72.42026273 257.23802531 C72.17974491 248.77345874 71.9391096 240.30889552 71.69830927 231.84433699 C71.57985342 227.68026279 71.46143113 223.51618765 71.34303284 219.35211182 C71.3197332 218.53266244 71.29643357 217.71321306 71.27242788 216.86893189 C70.89773624 203.68810298 70.52563763 190.50720209 70.15459599 177.32626998 C69.78185816 164.08635682 69.40672109 150.84651347 69.02910173 137.60673863 C68.80492159 129.74389599 68.58267266 121.88100423 68.36318169 114.01802927 C68.19905834 108.1460275 68.03135321 102.27413156 67.86226422 96.40227056 C67.79445141 94.02786077 67.72780283 91.6534174 67.66243643 89.27893901 C67.57338355 86.05012239 67.48008558 82.82145467 67.38574982 79.5927887 C67.36138881 78.67253141 67.33702779 77.75227413 67.31192857 76.80413026 C67.12175232 70.50751465 66.63227936 64.26721161 66 58 C64.85908669 57.58042668 64.85908669 57.58042668 63.69512463 57.15237713 C57.25569064 54.78421146 50.81663825 52.4150103 44.37792683 50.04488087 C41.03004838 48.81254211 37.68204618 47.58054203 34.33374023 46.34936523 C31.09144339 45.15715305 27.84949897 43.96398694 24.60777855 42.77020836 C22.79322263 42.10225562 20.97831982 41.43524544 19.16340637 40.76826477 C11.41497991 37.9136894 3.69930732 34.984424 -4 32 C-3.53733959 21.0397344 -1.92564094 10.91196535 0 0 Z " fill="#ED2546" transform="translate(662,250)"/>
<path d="M0 0 C91.74 0 183.48 0 278 0 C278.99 5.28 279.98 10.56 281 16 C279.24351985 16.00358253 279.24351985 16.00358253 277.45155525 16.00723743 C249.63128674 16.0646437 221.81109105 16.13740718 193.9909134 16.22898628 C190.56392961 16.24025394 187.13694541 16.25139247 183.70996094 16.26245117 C183.02773326 16.26465486 182.34550558 16.26685854 181.64260434 16.269129 C170.60777789 16.30446526 159.57295151 16.32935009 148.53808953 16.35034702 C137.20848963 16.37213838 125.8789738 16.40544149 114.54943168 16.44870156 C108.18866445 16.47262634 101.82797809 16.49136008 95.4671669 16.49761391 C89.47701921 16.503668 83.48707842 16.52368011 77.49700737 16.55427551 C75.30169423 16.56305043 73.10635405 16.56677946 70.91102409 16.56500816 C67.90586884 16.56334942 64.90133985 16.58010627 61.89627075 16.60127258 C61.03437201 16.59642501 60.17247326 16.59157743 59.28445637 16.58658296 C45.82287573 16.74228102 33.84695575 22.68688438 24.08203125 31.765625 C20.58441829 35.51916086 17.75218075 39.68146558 15 44 C13.53980564 43.58990286 12.08197228 43.17140121 10.625 42.75 C9.81289063 42.51796875 9.00078125 42.2859375 8.1640625 42.046875 C3.69395117 40.5678752 -0.64304984 38.78127091 -5 37 C-4.54647287 33.08276166 -4.08626696 29.16633388 -3.625 25.25 C-3.49867188 24.15816406 -3.37234375 23.06632812 -3.2421875 21.94140625 C-3.11328125 20.85214844 -2.984375 19.76289063 -2.8515625 18.640625 C-2.73635254 17.65610352 -2.62114258 16.67158203 -2.50244141 15.65722656 C-1.78308497 10.42109468 -0.86890037 5.21340224 0 0 Z " fill="#ED2647" transform="translate(601,183)"/>
<path d="M0 0 C3.82112 1.91056 4.51826514 2.35486216 6.6875 5.625 C14.66341406 16.60431312 25.70493213 23.34780471 39 26 C41.89107308 26.34711175 44.77232096 26.47685178 47.68139648 26.58007812 C48.56863875 26.61673836 49.45588102 26.65339859 50.37000942 26.69116974 C65.06032744 27.2484074 79.7658768 27.42849386 94.46396565 27.67424965 C98.94741107 27.75000452 103.43078615 27.82971811 107.91416931 27.90905762 C117.37435175 28.07589513 126.83459689 28.23892145 136.29486084 28.40106201 C150.46577043 28.64397005 164.63662512 28.89001156 178.80742067 29.13948298 C184.08316837 29.23222103 189.35894456 29.32301267 194.63475293 29.41222811 C217.09483855 29.79367191 239.54661378 30.33172093 262 31 C262.99 36.28 263.98 41.56 265 47 C249.90618966 47.04388071 234.82420245 46.93048104 219.7331543 46.64868164 C217.61747032 46.61072372 215.50178316 46.57294347 213.38609314 46.5353241 C207.71176335 46.4338844 202.03748386 46.32985827 196.36321235 46.2252152 C190.36544069 46.1149554 184.36763101 46.00679811 178.36982727 45.89830017 C168.29266652 45.71567096 158.21553839 45.53131899 148.13842773 45.34594727 C136.58194972 45.13338568 125.02542268 44.92367275 113.4688651 44.71548563 C102.24930491 44.51329007 91.02978563 44.30890002 79.81028175 44.10360527 C75.08517521 44.01718853 70.36005604 43.93152072 65.63492393 43.84651375 C39.75017533 43.38006974 13.87621939 42.82146003 -12 42 C-13.32 30.12 -14.64 18.24 -16 6 C-10.72 4.02 -5.44 2.04 0 0 Z " fill="#ED2546" transform="translate(623,1017)"/>
<path d="M0 0 C6.27 1.98 12.54 3.96 19 6 C18.40930324 14.77072526 16.85136364 23.12132617 14.9375 31.6875 C14.42821572 33.99210243 13.91947116 36.29682417 13.41114807 38.60163879 C13.14682763 39.79997251 12.88250719 40.99830622 12.61017704 42.23295307 C12.30813941 43.6026413 12.30813941 43.6026413 12 45 C-24.0719086 45.02957622 -60.14196559 44.96965268 -96.21350026 44.79807091 C-102.36713692 44.76909002 -108.52078044 44.74163579 -114.67442322 44.71398926 C-126.22167676 44.66189428 -137.76892394 44.60851348 -149.3161692 44.5546174 C-162.50707821 44.49311625 -175.69799399 44.4331297 -188.88891041 44.37324238 C-215.92594788 44.2504606 -242.96297674 44.12586774 -270 44 C-270 39.71 -270 35.42 -270 31 C-268.84485146 31.00368717 -267.68970291 31.00737434 -266.49954987 31.01117325 C-239.02028828 31.0979819 -211.54104053 31.16385046 -184.06166992 31.20426132 C-180.67246069 31.20926358 -177.28325176 31.21444092 -173.89404297 31.21972656 C-173.21937038 31.2207758 -172.5446978 31.22182505 -171.84958059 31.22290608 C-160.95454755 31.2402665 -150.05959975 31.27177983 -139.16461712 31.30861118 C-127.96838855 31.34614258 -116.77218892 31.3679625 -105.57589674 31.37635398 C-99.29423139 31.38155224 -93.01275876 31.39370339 -86.7311554 31.42292023 C-80.80831595 31.45024297 -74.88574706 31.45841107 -68.96285057 31.45243073 C-66.79905409 31.45352345 -64.63524775 31.46137604 -62.47150612 31.4768219 C-46.2589001 31.58679507 -30.53377826 31.09546702 -17 21 C-16.29488281 20.48695313 -15.58976562 19.97390625 -14.86328125 19.4453125 C-9.13805048 14.88693829 -5.68120551 9.24810016 -2 3 C-1.34 2.01 -0.68 1.02 0 0 Z " fill="#ED2546" transform="translate(1377,1003)"/>
<path d="M0 0 C1.57102489 3.80677259 3.1374843 7.61538764 4.69970703 11.42578125 C5.23197786 12.72219683 5.76550105 14.01809894 6.30029297 15.31347656 C7.06805964 17.17377949 7.83097659 19.03608163 8.59375 20.8984375 C9.05458984 22.01911621 9.51542969 23.13979492 9.99023438 24.29443359 C11 27 11 27 11 29 C9.04394531 30.38867187 9.04394531 30.38867187 6.328125 31.96875 C5.35359375 32.53980469 4.3790625 33.11085937 3.375 33.69921875 C2.34375 34.29347656 1.3125 34.88773438 0.25 35.5 C-0.76578125 36.09425781 -1.7815625 36.68851563 -2.828125 37.30078125 C-10.90358244 42.00792289 -10.90358244 42.00792289 -15 44 C-15.38671875 43.40832031 -15.7734375 42.81664062 -16.171875 42.20703125 C-17.76335267 39.79223963 -19.37899113 37.3950406 -21 35 C-21.5775 34.13375 -22.155 33.2675 -22.75 32.375 C-30.27058243 24.43660744 -42.08236187 17.63556775 -53.17735386 16.84481812 C-74.15542049 16.54485669 -94.97144374 17.97116253 -115.88468432 19.42314911 C-120.85018207 19.76594021 -125.81636823 20.09846264 -130.78248596 20.43212891 C-140.14604621 21.06273044 -149.50899566 21.70195122 -158.87173659 22.34459114 C-171.62731291 23.21968828 -184.38373097 24.08232373 -197.1401273 24.94536972 C-200.20638176 25.15282963 -203.27263325 25.36033339 -206.33888245 25.56787109 C-207.33229757 25.63510313 -208.32571269 25.70233517 -209.3492313 25.77160454 C-215.24606362 26.17096674 -221.14274836 26.57242925 -227.03930366 26.9758606 C-230.68751885 27.22543642 -234.33578047 27.47432969 -237.98404503 27.72318268 C-239.67762989 27.83891846 -241.3711901 27.95501551 -243.06472397 28.07149506 C-245.3699883 28.23003715 -247.67533215 28.38737038 -249.98069763 28.54443359 C-251.27154487 28.63292572 -252.5623921 28.72141785 -253.89235592 28.81259155 C-255.92550178 28.9352017 -257.96316045 29 -260 29 C-260.50559908 27.56445975 -261.0042749 26.1264798 -261.5 24.6875 C-261.91765625 23.48673828 -261.91765625 23.48673828 -262.34375 22.26171875 C-263 20 -263 20 -263 17 C-230.50644365 14.83161991 -198.01273053 12.66560817 -165.51879611 10.50290141 C-161.68237006 10.24755736 -157.84594536 9.99219312 -154.00952148 9.73681641 C-153.24576028 9.68597596 -152.48199907 9.6351355 -151.69509358 9.58275443 C-139.32927112 8.759564 -126.96355825 7.93473835 -114.59788512 7.10930806 C-101.90905607 6.26234313 -89.2201108 5.4171362 -76.53105599 4.57356024 C-68.7015974 4.05299752 -60.87223263 3.53106469 -53.04298241 3.00737751 C-47.03895731 2.60592454 -41.03477219 2.20691793 -35.0305233 1.80882454 C-32.56780928 1.64515694 -30.10514793 1.48069468 -27.64254379 1.315382 C-24.28201115 1.08991105 -20.92130124 0.86729226 -17.56053162 0.64538574 C-16.09699231 0.54616656 -16.09699231 0.54616656 -14.60388654 0.44494295 C-9.72275271 0.12579322 -4.89154059 -0.06947552 0 0 Z " fill="#ED2546" transform="translate(1393,183)"/>
</svg>
