<svg xmlns="http://www.w3.org/2000/svg" version="1.1" xmlns:xlink="http://www.w3.org/1999/xlink" xmlns:svgjs="http://svgjs.dev/svgjs" width="2000" height="1247" viewBox="0 0 2000 1247"><g transform="matrix(1,0,0,1,-1.2121212121212466,0.504858299595071)"><svg viewBox="0 0 396 247" data-background-color="#ffffff" preserveAspectRatio="xMidYMid meet" height="1247" width="2000" xmlns="http://www.w3.org/2000/svg" xmlns:xlink="http://www.w3.org/1999/xlink"><g id="tight-bounds" transform="matrix(1,0,0,1,0.2400000000000091,-0.09999999999999432)"><svg viewBox="0 0 395.52 247.2" height="247.2" width="395.52"><rect width="395.52" height="247.2" fill="url(#f89670f2-4427-477c-8dfb-dff730f8b16b)" mask="url(#513eb05e-1a66-4b0f-96c0-7b8801dea94b)" data-fill-palette-color="tertiary"></rect><g><svg></svg></g><g><svg viewBox="0 0 395.52 247.2" height="247.2" width="395.52"><g transform="matrix(1,0,0,1,39.55199999999999,37.363145410235575)"><svg viewBox="0 0 316.416 172.47370917952884" height="172.47370917952884" width="316.416"><g><svg viewBox="0 0 316.416 172.47370917952884" height="172.47370917952884" width="316.416"><g><svg viewBox="0 0 316.416 172.47370917952884" height="172.47370917952884" width="316.416"><g><svg viewBox="0 0 316.416 172.47370917952884" height="172.47370917952884" width="316.416"><g id="textblocktransform"><svg viewBox="0 0 316.416 172.47370917952884" height="172.47370917952884" width="316.416" id="textblock"><g><svg viewBox="0 0 316.416 172.47370917952884" height="172.47370917952884" width="316.416"><g transform="matrix(1,0,0,1,0,0)"><svg width="316.416" viewBox="-0.15 -32.95 61.55 33.550000000000004" height="172.47370917952884" data-palette-color="url(#9ca35241-03ab-42d2-99ed-4be594060602)"></svg></g></svg></g></svg></g></svg></g><g></g></svg></g></svg></g></svg></g><g><path d="M0 247.2v-247.2h395.52v247.2zM379.966 231.646v-216.092h-364.412v216.092z" fill="url(#f89670f2-4427-477c-8dfb-dff730f8b16b)" fill-rule="nonzero" stroke="none" stroke-width="1" stroke-linecap="butt" stroke-linejoin="miter" stroke-miterlimit="10" stroke-dasharray="" stroke-dashoffset="0" font-family="none" font-weight="none" font-size="none" text-anchor="none" style="mix-blend-mode: normal" data-fill-palette-color="tertiary"></path></g></svg></g><defs></defs><mask id="58b36788-2a74-44ec-b9aa-2a65ac664d46"><g id="SvgjsG2732"><svg viewBox="0 0 395.52 247.2" height="247.2" width="395.52"><g><svg></svg></g><g><svg viewBox="0 0 395.52 247.2" height="247.2" width="395.52"><g transform="matrix(1,0,0,1,39.55199999999999,37.363145410235575)"><svg viewBox="0 0 316.416 172.47370917952884" height="172.47370917952884" width="316.416"><g><svg viewBox="0 0 316.416 172.47370917952884" height="172.47370917952884" width="316.416"><g><svg viewBox="0 0 316.416 172.47370917952884" height="172.47370917952884" width="316.416"><g><svg viewBox="0 0 316.416 172.47370917952884" height="172.47370917952884" width="316.416"><g id="SvgjsG2731"><svg viewBox="0 0 316.416 172.47370917952884" height="172.47370917952884" width="316.416" id="SvgjsSvg2730"><g><svg viewBox="0 0 316.416 172.47370917952884" height="172.47370917952884" width="316.416"><g transform="matrix(1,0,0,1,0,0)"><svg width="316.416" viewBox="-0.15 -32.95 61.55 33.550000000000004" height="172.47370917952884" data-palette-color="url(#9ca35241-03ab-42d2-99ed-4be594060602)"><path d="M17.5-32.95Q22.3-32.95 26.75-31.2L26.75-31.2 24.25-23.1 22.85-22.5Q20.9-23.8 18.93-24.55 16.95-25.3 15.7-25.3L15.7-25.3Q14.45-25.3 13.73-24.78 13-24.25 13-23.5L13-23.5Q13-22.55 13.98-21.88 14.95-21.2 17.1-20.2L17.1-20.2Q19.55-19.05 21.18-18.03 22.8-17 24-15.28 25.2-13.55 25.2-11.1L25.2-11.1Q25.2-7.95 23.33-5.25 21.45-2.55 18.07-0.98 14.7 0.6 10.4 0.6L10.4 0.6Q5.25 0.6-0.15-1.3L-0.15-1.3 2.25-9.95 3.3-10.55Q5.45-8.75 7.95-7.75 10.45-6.75 12.25-6.75L12.25-6.75Q13.7-6.75 14.35-7.28 15-7.8 15-8.55L15-8.55Q15-9.55 13.98-10.28 12.95-11 10.8-12L10.8-12Q8.35-13.15 6.8-14.15 5.25-15.15 4.1-16.85 2.95-18.55 2.95-21L2.95-21Q2.95-24.3 4.85-27.05 6.75-29.8 10.08-31.38 13.4-32.95 17.5-32.95L17.5-32.95ZM51.25-32.35L61.4-32.35 58.15-10.5 57.25 0 47.25 0 48.95-9.5 49.2-12 43.8-12.1 39.05-11.95 38.85-10.5 37.95 0 27.95 0 29.65-9.5 31.95-32.35 42.1-32.35 40.3-20.1 45.35-20 50-20.1 51.25-32.35Z" opacity="1" transform="matrix(1,0,0,1,0,0)" fill="white" class="wordmark-text-0" id="SvgjsPath2729"></path></svg></g></svg></g></svg></g></svg></g><g></g></svg></g></svg></g></svg></g><g><path d="M0 247.2v-247.2h395.52v247.2zM379.966 231.646v-216.092h-364.412v216.092z" fill="black" fill-rule="nonzero" stroke="none" stroke-width="1" stroke-linecap="butt" stroke-linejoin="miter" stroke-miterlimit="10" stroke-dasharray="" stroke-dashoffset="0" font-family="none" font-weight="none" font-size="none" text-anchor="none" style="mix-blend-mode: normal"></path></g></svg></g><defs><mask></mask></defs></svg><rect width="395.52" height="247.2" fill="black" stroke="none" visibility="hidden"></rect></g></mask><linearGradient x1="0" x2="1" y1="0.5" y2="0.5" id="9ca35241-03ab-42d2-99ed-4be594060602"><stop stop-color="#ffa62e" offset="0"></stop><stop stop-color="#f71b3d" offset="1"></stop></linearGradient><rect width="395.52" height="247.2" fill="url(#9ca35241-03ab-42d2-99ed-4be594060602)" mask="url(#58b36788-2a74-44ec-b9aa-2a65ac664d46)" data-fill-palette-color="primary"></rect><mask id="513eb05e-1a66-4b0f-96c0-7b8801dea94b"><g id="SvgjsG2755"><svg viewBox="0 0 395.52 247.2" height="247.2" width="395.52"><g><svg></svg></g><g><svg viewBox="0 0 395.52 247.2" height="247.2" width="395.52"><g transform="matrix(1,0,0,1,39.55199999999999,37.363145410235575)"><svg viewBox="0 0 316.416 172.47370917952884" height="172.47370917952884" width="316.416"><g><svg viewBox="0 0 316.416 172.47370917952884" height="172.47370917952884" width="316.416"><g><svg viewBox="0 0 316.416 172.47370917952884" height="172.47370917952884" width="316.416"><g><svg viewBox="0 0 316.416 172.47370917952884" height="172.47370917952884" width="316.416"><g id="SvgjsG2754"><svg viewBox="0 0 316.416 172.47370917952884" height="172.47370917952884" width="316.416" id="SvgjsSvg2753"><g><svg viewBox="0 0 316.416 172.47370917952884" height="172.47370917952884" width="316.416"><g transform="matrix(1,0,0,1,0,0)"><svg width="316.416" viewBox="-0.15 -32.95 61.55 33.550000000000004" height="172.47370917952884" data-palette-color="url(#9ca35241-03ab-42d2-99ed-4be594060602)"></svg></g></svg></g></svg></g></svg></g><g></g></svg></g></svg></g></svg></g><g><path d="M0 247.2v-247.2h395.52v247.2zM379.966 231.646v-216.092h-364.412v216.092z" fill="white" fill-rule="nonzero" stroke="none" stroke-width="1" stroke-linecap="butt" stroke-linejoin="miter" stroke-miterlimit="10" stroke-dasharray="" stroke-dashoffset="0" font-family="none" font-weight="none" font-size="none" text-anchor="none" style="mix-blend-mode: normal"></path></g></svg></g><defs><mask></mask></defs><mask><g id="SvgjsG2752"><svg viewBox="0 0 395.52 247.2" height="247.2" width="395.52"><g><svg></svg></g><g><svg viewBox="0 0 395.52 247.2" height="247.2" width="395.52"><g transform="matrix(1,0,0,1,39.55199999999999,37.363145410235575)"><svg viewBox="0 0 316.416 172.47370917952884" height="172.47370917952884" width="316.416"><g><svg viewBox="0 0 316.416 172.47370917952884" height="172.47370917952884" width="316.416"><g><svg viewBox="0 0 316.416 172.47370917952884" height="172.47370917952884" width="316.416"><g><svg viewBox="0 0 316.416 172.47370917952884" height="172.47370917952884" width="316.416"><g id="SvgjsG2751"><svg viewBox="0 0 316.416 172.47370917952884" height="172.47370917952884" width="316.416" id="SvgjsSvg2750"><g><svg viewBox="0 0 316.416 172.47370917952884" height="172.47370917952884" width="316.416"><g transform="matrix(1,0,0,1,0,0)"><svg width="316.416" viewBox="-0.15 -32.95 61.55 33.550000000000004" height="172.47370917952884" data-palette-color="url(#9ca35241-03ab-42d2-99ed-4be594060602)"><path d="M17.5-32.95Q22.3-32.95 26.75-31.2L26.75-31.2 24.25-23.1 22.85-22.5Q20.9-23.8 18.93-24.55 16.95-25.3 15.7-25.3L15.7-25.3Q14.45-25.3 13.73-24.78 13-24.25 13-23.5L13-23.5Q13-22.55 13.98-21.88 14.95-21.2 17.1-20.2L17.1-20.2Q19.55-19.05 21.18-18.03 22.8-17 24-15.28 25.2-13.55 25.2-11.1L25.2-11.1Q25.2-7.95 23.33-5.25 21.45-2.55 18.07-0.98 14.7 0.6 10.4 0.6L10.4 0.6Q5.25 0.6-0.15-1.3L-0.15-1.3 2.25-9.95 3.3-10.55Q5.45-8.75 7.95-7.75 10.45-6.75 12.25-6.75L12.25-6.75Q13.7-6.75 14.35-7.28 15-7.8 15-8.55L15-8.55Q15-9.55 13.98-10.28 12.95-11 10.8-12L10.8-12Q8.35-13.15 6.8-14.15 5.25-15.15 4.1-16.85 2.95-18.55 2.95-21L2.95-21Q2.95-24.3 4.85-27.05 6.75-29.8 10.08-31.38 13.4-32.95 17.5-32.95L17.5-32.95ZM51.25-32.35L61.4-32.35 58.15-10.5 57.25 0 47.25 0 48.95-9.5 49.2-12 43.8-12.1 39.05-11.95 38.85-10.5 37.95 0 27.95 0 29.65-9.5 31.95-32.35 42.1-32.35 40.3-20.1 45.35-20 50-20.1 51.25-32.35Z" opacity="1" transform="matrix(1,0,0,1,0,0)" fill="black" class="wordmark-text-0" id="SvgjsPath2749"></path></svg></g></svg></g></svg></g></svg></g><g></g></svg></g></svg></g></svg></g><g><path d="M0 247.2v-247.2h395.52v247.2zM379.966 231.646v-216.092h-364.412v216.092z" fill="black" fill-rule="nonzero" stroke="none" stroke-width="1" stroke-linecap="butt" stroke-linejoin="miter" stroke-miterlimit="10" stroke-dasharray="" stroke-dashoffset="0" font-family="none" font-weight="none" font-size="none" text-anchor="none" style="mix-blend-mode: normal"></path></g></svg></g><defs><mask></mask></defs></svg><rect width="395.52" height="247.2" fill="black" stroke="none" visibility="hidden"></rect></g></mask></svg><rect width="395.52" height="247.2" fill="black" stroke="none" visibility="hidden"></rect></g></mask><linearGradient x1="0" x2="1" y1="0.5" y2="0.5" id="f89670f2-4427-477c-8dfb-dff730f8b16b"><stop stop-color="#ffa62e" offset="0"></stop><stop stop-color="#f71b3d" offset="1"></stop></linearGradient></svg><rect width="395.52" height="247.2" fill="none" stroke="none" visibility="hidden"></rect></g></svg></g></svg>