<?xml version="1.0" standalone="no"?>
<!DOCTYPE svg PUBLIC "-//W3C//DTD SVG 20010904//EN"
 "http://www.w3.org/TR/2001/REC-SVG-20010904/DTD/svg10.dtd">
<svg version="1.0" xmlns="http://www.w3.org/2000/svg"
 width="400.000000pt" height="300.000000pt" viewBox="0 0 400.000000 300.000000"
 preserveAspectRatio="xMidYMid meet">

<g transform="translate(0.000000,300.000000) scale(0.100000,-0.100000)"
fill="#000000" stroke="none">
<path d="M0 1500 l0 -1500 2000 0 2000 0 0 1500 0 1500 -2000 0 -2000 0 0
-1500z m2216 315 c-2 -7 -66 -45 -140 -85 -75 -40 -136 -76 -136 -79 0 -4 14
-15 30 -24 28 -17 30 -22 30 -79 0 -53 -2 -59 -17 -53 -10 4 -60 23 -110 42
l-93 36 0 77 0 77 218 85 217 86 3 -35 c2 -19 1 -41 -2 -48z m4 -368 l0 -44
-206 -142 c-113 -78 -212 -145 -220 -148 -11 -4 -14 10 -14 70 l0 74 213 116
c116 64 215 116 220 116 4 1 7 -19 7 -42z"/>
</g>
</svg>
